<?xml version="1.0" encoding="utf-8"?>
<svg width="174" height="174" viewBox="0 0 174 174" fill="none" xmlns="http://www.w3.org/2000/svg">
  <g>
    <path d="M121.603 71.9834C131.212 71.9834 139.003 64.1932 139.003 54.5834C139.286 50.2653 137.847 46.0107 135.001 42.7514C128.542 35.933 117.837 35.471 110.815 41.7074C104.457 47.3304 97.5824 52.3407 90.2827 56.6714C85.8704 59.3257 81.208 61.5404 76.3627 63.2834C76.5604 58.3639 77.201 53.4722 78.2767 48.6676C79.916 40.1601 82.3631 31.8283 85.5847 23.7856C88.1189 17.3614 86.614 10.0465 81.7497 5.14446C76.8853 0.242395 69.5823 -1.31895 63.1387 1.16555C54.5341 5.04966 50.5965 15.0867 54.2647 23.7856C57.7005 31.7667 60.2109 40.1151 61.7468 48.6676C62.823 53.7073 63.4634 58.8302 63.6608 63.9796C58.7746 62.2012 54.0577 59.9884 49.5667 57.3676C42.2424 52.8094 35.3675 47.5659 29.0347 41.7076C25.4952 38.4638 20.7726 36.8266 15.9847 37.1836C6.37499 38.0005 -0.753084 46.4529 0.0637455 56.0626C0.880575 65.6724 9.333 72.8005 18.9428 71.9836C27.3301 71.1102 35.7854 71.1102 44.1727 71.9836C49.307 72.6332 54.3731 73.7396 59.3107 75.2896C56.0664 79.2795 52.39 82.8975 48.3486 86.0774C42.0462 91.797 35.0971 96.7606 27.6426 100.867C23.44 103.14 20.357 107.041 19.1166 111.655C17.2447 115.878 17.1281 120.671 18.7926 124.979C20.4571 129.287 23.7661 132.757 27.9906 134.623C32.2128 136.495 37.006 136.612 41.3141 134.947C45.6223 133.283 49.0919 129.974 50.9586 125.749C51.5673 124.192 51.9199 122.547 52.0026 120.877C54.134 112.679 57.1685 104.742 61.0507 97.2134C63.4234 92.6134 66.2195 88.2446 69.4027 84.1633C72.8285 88.3565 75.6945 92.9772 77.9287 97.9093C81.7508 105.203 84.728 112.909 86.8026 120.877C88.043 125.492 91.126 129.393 95.3286 131.665C103.328 134.326 112.084 130.87 116.109 123.462C120.134 116.055 118.27 106.827 111.685 101.563C104.327 97.372 97.3922 92.4772 90.9787 86.9475C87.1118 83.5743 83.4512 79.9718 80.0166 76.1594C84.9634 74.6441 90.0265 73.5383 95.1546 72.8534C103.913 71.6037 112.781 71.312 121.603 71.9834C121.603 71.9834 121.603 71.9834 121.603 71.9834Z" fill="#525252" transform="translate(17.597 18.323)" />
  </g>
</svg>