<?xml version="1.0" encoding="utf-8"?>
<svg width="85" height="85" viewBox="0 0 85 85" fill="none" xmlns="http://www.w3.org/2000/svg">
  <g>
    <path d="M59.7267 44.5255C55.1199 43.9406 50.6045 42.7805 46.2861 41.0724C43.3054 39.8983 40.3963 38.5501 37.5737 37.0349C40.413 35.5166 43.3401 34.1684 46.3394 32.9973C50.6272 31.2628 55.1309 30.119 59.7267 29.5973C61.8656 29.3252 63.7926 28.169 65.0392 26.4099C66.6147 24.189 66.8856 21.2962 65.7497 18.8215C64.6138 16.3467 62.2438 14.6661 59.5327 14.4127C56.8215 14.1594 54.1812 15.3718 52.6065 17.5933C52.6065 17.5933 52.6065 17.5933 52.6065 17.5933C49.9119 21.4087 46.6728 24.8087 42.9924 27.6849C40.4776 29.6079 37.8523 31.3818 35.1298 32.9974C35.2464 29.7951 35.5479 26.6022 36.033 23.4348C36.7609 18.9772 38.0274 14.6246 39.8048 10.4724C40.705 8.49831 40.705 6.23088 39.8048 4.25678C38.0774 0.649616 33.8208 -0.964138 30.1361 0.591154C26.493 2.40087 24.96 6.78739 26.683 10.4724C28.5489 14.7405 29.8181 19.2453 30.4549 23.8598C30.8347 27.0333 31.0298 30.2262 31.0392 33.4223C28.3168 31.8067 25.6915 30.0328 23.1769 28.1098C19.479 25.1162 16.208 21.6308 13.4549 17.7505C12.1777 16.0514 10.2551 14.9555 8.14236 14.7224C4.18271 14.55 0.77409 17.4919 0.365778 21.4342C-0.0425339 25.3765 2.6908 28.9546 6.60173 29.5974C11.1998 30.138 15.7033 31.2996 19.9892 33.0505C23.0088 34.1939 25.9541 35.5246 28.8079 37.0348C25.9668 38.5339 23.0399 39.8643 20.0423 41.0192C15.7257 42.7434 11.2105 43.9213 6.60169 44.5255C4.45841 44.7453 2.51801 45.8901 1.28923 47.6599C-0.91421 50.9129 -0.229739 55.3156 2.8573 57.7461C5.94434 60.1766 10.3847 59.8089 13.0299 56.9036C13.0299 56.9036 13.3486 56.4255 13.3486 56.4255C16.1871 52.6923 19.4897 49.3361 23.1767 46.438C25.6733 44.5154 28.2809 42.7415 30.9861 41.1255C30.8984 44.3297 30.5967 47.5243 30.0829 50.6881C29.4969 55.1171 28.3546 59.4545 26.6829 63.5975C25.3839 67.3031 27.167 71.383 30.769 72.9466C34.371 74.5103 38.5691 73.0269 40.3892 69.5475C41.1861 67.6442 41.1861 65.5008 40.3892 63.5975C38.5232 59.3331 37.2711 54.8258 36.6704 50.21C36.0302 47.0549 35.6042 43.8601 35.3954 40.6475C38.1006 42.2635 40.7082 44.0374 43.2048 45.96C46.8478 48.8321 50.1142 52.152 52.9267 55.8412C54.2066 57.546 56.1239 58.658 58.2392 58.9224C62.2159 59.1359 65.6645 56.2004 66.0888 52.2406C66.513 48.2808 63.7646 44.6812 59.8329 44.0474C59.8329 44.0474 59.7267 44.5255 59.7267 44.5255Z" fill="#525252" transform="translate(9.336 5.465)" />
  </g>
</svg>