<?xml version="1.0" encoding="utf-8"?>
<svg width="84" height="84" viewBox="0 0 84 84" fill="none" xmlns="http://www.w3.org/2000/svg">
  <g>
    <g transform="translate(5.835 0)">
      <path d="M45.5513 14.2506C45.3416 14.0385 45.1063 13.8442 44.8478 13.672C44.8478 13.672 44.5828 13.6167 44.5828 13.6167C44.444 13.5563 44.3334 13.4572 44.2613 13.3375C43.8472 13.1421 43.4137 13.0161 42.9727 12.9531C42.5919 12.9002 42.3245 12.5467 42.3798 12.1633C42.4311 11.78 42.7873 11.5126 43.1681 11.5653C43.6042 11.6296 44.0412 11.7403 44.4606 11.9049C44.5287 11.5987 44.5672 11.2862 44.5672 10.9712C44.5659 10.2818 44.404 9.58601 44.0593 8.9314C43.6657 8.18294 43.0884 7.59904 42.4131 7.20054C41.8215 6.85076 41.1528 6.6424 40.466 6.59351C40.416 7.21973 40.2668 7.8435 40.0069 8.4479C39.8526 8.80277 39.4424 8.96618 39.0862 8.81311C38.7312 8.66135 38.5666 8.24988 38.7197 7.89485C38.9691 7.31243 39.0862 6.71311 39.0888 6.11887C39.0888 6.11887 39.0798 5.86556 39.0798 5.86556C39.0322 5.04246 38.7596 4.24774 38.2953 3.57C37.831 2.89341 37.1803 2.3392 36.3702 1.98811C35.7889 1.73988 35.1869 1.62291 34.594 1.62291C33.4584 1.62291 32.3588 2.0603 31.5282 2.83172C31.6837 3.36033 31.7725 3.91716 31.7725 4.49597C31.7725 4.88184 31.4562 5.19553 31.0703 5.19553C30.6844 5.19553 30.3694 4.88184 30.3694 4.49597C30.3694 3.9288 30.2652 3.39117 30.0749 2.89095C30.0749 2.89095 30.0762 2.89095 30.0762 2.89095C29.7534 2.04865 29.1824 1.32333 28.4507 0.811453C27.7214 0.299742 26.838 0 25.8761 0C25.0415 0 24.2633 0.227719 23.5946 0.621141C23.0596 0.937454 22.5979 1.36451 22.2354 1.86605C22.9439 2.83697 23.3631 4.03692 23.3631 5.33072C23.3631 5.71643 23.0481 6.02897 22.6609 6.02897C22.2751 6.02897 21.9601 5.71643 21.9601 5.33072C21.9601 4.19393 21.542 3.15984 20.8464 2.3689C20.0208 1.42619 18.8158 0.836061 17.4654 0.836061C16.5279 0.836061 15.665 1.12022 14.9434 1.60896C14.2245 2.0977 13.6523 2.78955 13.314 3.60232C13.0954 4.13339 12.9706 4.7186 12.9706 5.33072C12.9706 5.71643 12.658 6.02897 12.271 6.02897C11.8838 6.02897 11.5715 5.71643 11.5715 5.33072C11.5715 4.76224 11.6538 4.21444 11.8029 3.69223C11.2756 3.47878 10.7047 3.36049 10.1183 3.36049C9.7853 3.36049 9.45094 3.39905 9.11133 3.47501C8.11334 3.70519 7.27876 4.24282 6.66779 4.9706C6.22793 5.49544 5.91408 6.11904 5.75084 6.78907C7.19771 6.81466 8.6431 7.37412 9.75954 8.46726C10.0348 8.73862 10.0399 9.1811 9.76988 9.45623C9.49852 9.73399 9.05605 9.73662 8.7796 9.46772C7.90252 8.61263 6.77213 8.18426 5.63518 8.18294C5.43207 8.18294 5.22879 8.19705 5.02552 8.22281C5.02552 8.22281 5.02306 8.22281 5.02306 8.22281C5.02306 8.22281 5.02175 8.22281 5.02175 8.22281C4.06887 8.35521 3.15061 8.78981 2.42136 9.53334C1.56479 10.4078 1.14035 11.537 1.13921 12.6765C1.13921 13.326 1.28063 13.9804 1.56347 14.5824C1.78331 15.0568 2.09208 15.4993 2.49075 15.8876C2.49075 15.8876 2.49075 15.8888 2.49075 15.8888C2.94094 16.3313 3.46053 16.6579 4.01489 16.8714C4.37353 17.0116 4.55499 17.4167 4.41356 17.7767C4.27345 18.1394 3.86953 18.3195 3.50826 18.178C2.78426 17.8976 2.10011 17.4682 1.50834 16.8881C1.24994 16.6335 1.0196 16.3621 0.815342 16.0742C0.286732 16.8317 -4.95911e-05 17.7381 -4.95911e-05 18.6616C-4.95911e-05 19.3768 0.171068 20.0981 0.532333 20.7759C0.938717 21.5347 1.52655 22.1263 2.2184 22.53C2.7649 22.8503 3.37586 23.0523 4.00603 23.123C4.00603 23.123 4.00472 23.0805 4.00472 23.0805C4.00472 22.71 4.0395 22.3474 4.1025 21.995C4.17452 21.6144 4.54104 21.366 4.9192 21.4343C5.29983 21.505 5.55068 21.8702 5.48243 22.2508C5.43222 22.5195 5.40532 22.7986 5.40532 23.0803C5.40532 23.0803 5.4168 23.4058 5.4168 23.4058L5.45405 23.7338L5.45405 23.7375C5.45405 23.7375 5.45536 23.7439 5.45536 23.7439C5.77692 25.9406 7.67512 27.5827 9.89735 27.5827C9.89735 27.5827 10.2202 27.5699 10.2202 27.5699C10.2202 27.5699 10.2215 27.5699 10.2215 27.5699C11.2066 27.4992 12.0914 27.1184 12.7935 26.5256C13.2861 26.1102 13.6898 25.5895 13.9664 25.0028C14.1297 24.6517 14.5502 24.5027 14.8988 24.6684C15.2486 24.8332 15.3979 25.2497 15.2332 25.5996C14.9336 26.2311 14.5246 26.8008 14.0334 27.2856C14.3085 28.1318 14.8255 28.8584 15.5007 29.3985C16.2725 30.0172 17.2459 30.3824 18.2978 30.3824C18.2978 30.3824 18.622 30.3696 18.622 30.3696C18.622 30.3696 18.6233 30.3696 18.6233 30.3696C19.2894 30.322 19.9055 30.1304 20.4521 29.832C20.3672 29.4295 20.3184 29.0181 20.3184 28.6013C20.3184 27.7421 20.5101 26.8664 20.9061 26.0433C21.0746 25.6948 21.4925 25.5494 21.8398 25.7179C22.1883 25.8838 22.3362 26.3031 22.1678 26.6516C21.8629 27.2831 21.7202 27.9467 21.7202 28.6013C21.7202 29.0591 21.7909 29.5157 21.9272 29.949C21.9272 29.949 21.9285 29.949 21.9285 29.949C22.2873 31.0923 23.0977 32.0916 24.264 32.6522C24.8941 32.957 25.5578 33.0998 26.2111 33.0998C27.2489 33.0998 28.2637 32.737 29.0687 32.0799C29.0687 32.0799 29.0713 32.0786 29.0713 32.0786C29.5601 31.676 29.9691 31.1668 30.2634 30.5584C30.2634 30.5584 30.2647 30.5558 30.2647 30.5558C30.5387 29.9875 30.6828 29.3921 30.707 28.7979C30.7251 28.412 31.0504 28.1111 31.4388 28.1292C31.8246 28.1459 32.1229 28.4724 32.1062 28.8583C32.0727 29.6376 31.8837 30.4246 31.5249 31.1666C31.5249 31.1666 31.5249 31.1653 31.5249 31.1653C31.2368 31.7659 30.8575 32.2945 30.4125 32.7459C31.2381 33.9316 32.6116 34.6789 34.0971 34.6776C34.3722 34.6776 34.6526 34.652 34.9343 34.5978C36.0158 34.3947 36.9276 33.8223 37.5758 33.0353C38.2227 32.2468 38.5996 31.245 38.5996 30.1878C38.5996 30.1878 38.5983 30.0928 38.5983 30.0928C38.5983 30.0928 38.5983 30.0876 38.5983 30.0876C38.5932 29.8497 38.5688 29.6003 38.5225 29.3493C38.4106 28.7539 38.1829 28.2137 37.8705 27.7366C37.4179 27.3379 36.915 26.8172 36.4405 26.2383C35.9351 25.6211 35.4696 24.9459 35.1571 24.2657C34.9513 23.8104 34.8047 23.35 34.802 22.8652C34.802 22.6505 34.8316 22.428 34.9126 22.2145C34.991 21.9972 35.1197 21.7914 35.2919 21.6216C35.5646 21.3503 36.0069 21.3503 36.2809 21.6216C36.5536 21.8968 36.5536 22.3417 36.2809 22.6132C36.2809 22.6132 36.2281 22.6969 36.2281 22.6969C36.2281 22.6969 36.2012 22.8654 36.2012 22.8654C36.1985 23.0416 36.2719 23.34 36.43 23.6832C36.5869 24.0255 36.8197 24.4099 37.0937 24.7892C37.6364 25.5493 38.3399 26.2953 38.8696 26.7504C38.8696 26.7504 38.9417 26.8122 38.9417 26.8122C38.9417 26.8122 38.9945 26.8907 38.9945 26.8907C39.4279 27.5362 39.7456 28.2796 39.8985 29.0911C39.8985 29.0911 39.8985 29.0924 39.8985 29.0924L39.9487 29.4395C39.9487 29.4395 40.1584 29.4486 40.1584 29.4486C41.0458 29.4472 41.9394 29.1849 42.7253 28.6332C43.3504 28.1933 43.8261 27.6288 44.1477 26.9947C44.4704 26.3594 44.6389 25.6572 44.6389 24.95C44.6389 24.2876 44.4896 23.6227 44.1913 23.0042C43.9147 23.0929 43.6344 23.1636 43.3502 23.2125C42.9696 23.2806 42.6081 23.0221 42.5401 22.6416C42.4756 22.2597 42.733 21.8995 43.1136 21.8326C44.3533 21.6192 45.4889 20.8965 46.1911 19.7364C46.636 19.0073 46.8457 18.2047 46.8457 17.4113C46.8457 16.2422 46.3942 15.099 45.5532 14.2514C45.5532 14.2514 45.5513 14.2506 45.5513 14.2506C45.5513 14.2506 45.5513 14.2506 45.5513 14.2506ZM13.4685 8.90843C14.1372 8.11748 15.0246 7.5554 15.9788 7.18758C16.9369 6.81975 17.9632 6.64355 18.9484 6.64355C19.9065 6.64486 20.8272 6.80695 21.6091 7.16969C21.9589 7.329 22.112 7.74703 21.9499 8.09812C21.7891 8.44807 21.3737 8.60229 21.0201 8.44036C20.48 8.18704 19.7404 8.04169 18.9484 8.04169C18.133 8.04169 17.2638 8.19197 16.483 8.49565C15.7024 8.79522 15.0169 9.24279 14.5346 9.81126C14.2877 10.1071 13.844 10.1456 13.5482 9.89362C13.2537 9.64408 13.2165 9.20292 13.4685 8.90843C13.4685 8.90843 13.4685 8.90843 13.4685 8.90843ZM29.4051 25.4648C28.591 25.4648 27.8527 25.3723 27.1789 25.2167C27.1969 25.4095 27.2097 25.6243 27.2097 25.852C27.2097 26.3086 27.1595 26.8305 27.0168 27.3784C26.8728 27.9249 26.6298 28.4998 26.2465 29.0515C26.0267 29.3705 25.5906 29.4489 25.273 29.2289C24.954 29.0089 24.8769 28.5743 25.0942 28.254C25.377 27.8463 25.5532 27.4296 25.6613 27.0195C25.7694 26.6093 25.8093 26.2105 25.8093 25.8518C25.8106 25.3567 25.7347 24.949 25.6807 24.7162C25.3386 24.5618 25.0234 24.3882 24.7291 24.194C23.5562 23.4352 22.7719 22.4334 22.2792 21.4804C21.9487 20.8412 21.7479 20.224 21.64 19.6877C21.5783 19.3815 21.5475 19.1039 21.5475 18.8516C21.5475 18.4633 21.8613 18.1494 22.2483 18.1494C22.6353 18.1494 22.9492 18.4633 22.9492 18.8516C22.9479 19.0547 22.9917 19.3956 23.1023 19.7828C23.2129 20.1712 23.3891 20.6123 23.6437 21.0559C24.1542 21.9484 24.9657 22.8423 26.2183 23.4224C27.0555 23.8107 28.0972 24.0627 29.4051 24.0627C29.7921 24.0627 30.1059 24.3766 30.1059 24.7636C30.1059 25.1511 29.7922 25.4648 29.4051 25.4648C29.4051 25.4648 29.4051 25.4648 29.4051 25.4648ZM34.3358 20.3515C34.1917 20.7091 33.784 20.884 33.4239 20.7411C33.0651 20.5971 32.8928 20.192 33.0342 19.8332C33.0342 19.8332 33.0342 19.8319 33.0342 19.8319L33.0382 19.8215L33.0589 19.7598C33.0589 19.7598 33.1309 19.5078 33.1309 19.5078C33.1837 19.2867 33.2377 18.9741 33.2377 18.6308C33.2377 18.6308 33.2364 18.5819 33.2364 18.5819C32.2745 18.9085 31.382 19.055 30.5602 19.055C29.3179 19.0577 28.2428 18.7169 27.3682 18.1999C26.4924 17.6831 25.8109 16.9988 25.3015 16.3031C24.7228 15.5147 23.964 14.8075 23.0947 14.3072C22.2229 13.8055 21.248 13.5073 20.2128 13.5046C19.3061 13.5073 18.3416 13.7335 17.3346 14.2866C16.3791 14.8112 15.7644 15.5095 15.367 16.276C14.9723 17.0438 14.8051 17.8822 14.8062 18.6462C14.8036 19.3535 14.9529 19.9938 15.147 20.3977C15.3129 20.7475 15.1624 21.1642 14.814 21.3301C14.4655 21.4961 14.0475 21.3455 13.8816 20.997C13.5768 20.3513 13.4071 19.5385 13.4045 18.6462C13.4058 17.7588 13.582 16.789 14.0155 15.8619C13.1463 16.0588 12.3386 16.1462 11.6029 16.1462C11.2056 16.1462 10.8312 16.1205 10.475 16.0742C10.475 16.0742 10.3451 16.3365 10.3451 16.3365L10.3437 16.339L10.3334 16.3495L10.2962 16.3971C10.2962 16.3971 10.1469 16.6002 10.1469 16.6002C10.0196 16.7829 9.84335 17.049 9.65172 17.3885C9.26978 18.0611 8.83256 19.0102 8.62026 20.0762C8.54446 20.4556 8.17664 20.7039 7.79716 20.6266C7.41785 20.5508 7.17077 20.183 7.24935 19.801C7.50135 18.5368 7.99928 17.4617 8.43257 16.6965C8.65882 16.3004 8.86603 15.9867 9.01762 15.7731C8.44668 15.6022 7.95285 15.3925 7.5491 15.1789C6.62706 14.6888 6.14718 14.1976 6.10616 14.1578C5.83858 13.8787 5.84629 13.4362 6.12405 13.1675C6.40312 12.9001 6.84428 12.9078 7.11302 13.1829C7.11302 13.1829 7.12089 13.1906 7.12089 13.1906L7.16191 13.2305C7.16191 13.2305 7.36256 13.3988 7.36256 13.3988C7.54499 13.5429 7.82685 13.7411 8.20354 13.9415C8.95971 14.3402 10.089 14.7441 11.6026 14.7468C12.666 14.7468 13.92 14.5436 15.377 13.9829C15.7462 13.6395 16.1717 13.3258 16.6605 13.0582C17.8591 12.4012 19.0666 12.1054 20.2124 12.1054C21.5216 12.1054 22.7395 12.4861 23.7941 13.093C24.8487 13.7027 25.7425 14.5372 26.4304 15.476C26.8484 16.043 27.3975 16.5923 28.0779 16.9921C28.7621 17.3934 29.5709 17.6546 30.5598 17.6557C31.2376 17.6557 32.0015 17.5297 32.8657 17.2262C32.6549 16.8879 32.3411 16.5613 31.8241 16.2655C31.4871 16.0739 31.3675 15.647 31.5578 15.3113C31.7495 14.973 32.1752 14.8572 32.512 15.045C33.3402 15.5119 33.8946 16.1305 34.216 16.7774C34.5413 17.4216 34.6378 18.0749 34.6378 18.6306C34.634 19.6005 34.355 20.3014 34.3358 20.3515C34.3358 20.3515 34.3358 20.3515 34.3358 20.3515ZM34.0735 11.7725C32.4376 11.7725 31.0063 11.3313 29.8489 10.6639C29.6856 10.8903 29.4669 11.1745 29.1852 11.4831C28.5513 12.1788 27.6201 12.9955 26.374 13.4429C26.0075 13.5716 25.6088 13.3839 25.4789 13.0187C25.349 12.6533 25.5406 12.2535 25.902 12.1249C26.8216 11.7969 27.5905 11.1526 28.1231 10.57C28.37 10.3038 28.5616 10.0518 28.7006 9.85883C28.0099 9.2751 27.4647 8.61015 27.0905 7.92601C26.7356 7.27009 26.5297 6.59366 26.5273 5.93643C26.5273 5.55071 26.8411 5.23686 27.2281 5.23686C27.614 5.23686 27.9277 5.55071 27.9277 5.93643C27.9251 6.29014 28.0486 6.76215 28.3211 7.25729C28.5898 7.75358 28.9989 8.27054 29.5339 8.73369C30.6039 9.66097 32.1484 10.3707 34.0736 10.3707C34.4607 10.3707 34.7732 10.6859 34.7732 11.0729C34.773 11.4586 34.4605 11.7725 34.0735 11.7725C34.0735 11.7725 34.0735 11.7725 34.0735 11.7725ZM39.593 21.6325C39.3474 21.9283 38.9049 21.9719 38.6067 21.7237C38.3084 21.4781 38.2672 21.0358 38.5115 20.7386C39.2754 19.8114 39.5571 18.8777 39.5595 17.984C39.5622 17.17 39.3126 16.3841 38.9217 15.7219C38.5358 15.0608 38.0022 14.531 37.4891 14.2365C37.1444 14.0385 36.8203 13.9497 36.5631 13.9497C36.1759 13.9497 35.8635 13.6374 35.8635 13.2502C35.8635 12.8632 36.1761 12.5493 36.5631 12.5493C36.9887 12.5493 37.4054 12.6535 37.8016 12.8284C38.1963 13.0008 38.5694 13.2464 38.9166 13.5461C39.6097 14.1453 40.1987 14.9607 40.5692 15.9164C40.8135 16.5541 40.9626 17.2538 40.9626 17.9842C40.9639 19.1851 40.5537 20.4711 39.593 21.6325C39.593 21.6325 39.593 21.6325 39.593 21.6325Z" fill="#1F44C4" fill-opacity="0.698" transform="matrix(1 0 0 1 15.935 10.858)" />
      <path d="M0 0C0 0 0.0477428 0.0424881 0.0477428 0.0424881C0.0464306 0.0411758 0.0464306 0.0411758 0.0451164 0.0398636C0.0451164 0.0398636 0 0 0 0L0 0Z" fill="#000000" transform="matrix(1 0 0 1 22.46 67.564)" />
      <path d="M64.4987 10.9223C59.2888 4.83033 51.4531 0.68168 41.413 0.0757969C40.5963 0.0255938 39.7835 0 38.9785 0C30.5343 0 22.7666 2.74181 17.0722 7.77541C11.3738 12.7961 7.82562 20.147 7.83842 28.9513C7.83842 29.1506 7.83973 29.35 7.8435 29.5506C7.8435 29.5506 7.83464 30.6128 7.83464 30.6128C7.83464 30.6128 0.586524 43.4126 0.586524 43.4126C0.196875 44.1031 0 44.8736 0 45.644C0 46.2868 0.1365 46.9325 0.412781 47.5343C0.997992 48.8114 2.14889 49.7297 3.51209 50.046C3.51209 50.046 3.50946 50.0574 3.50946 50.0574L6.84289 50.9757L8.15981 63.6779C8.15981 63.6779 8.17015 63.6766 8.17015 63.6766C8.26285 65.5272 9.08841 67.2647 10.4903 68.4838C11.7365 69.5692 13.3273 70.1582 14.9632 70.1582C15.1289 70.1582 15.2923 70.1428 15.457 70.1313C15.457 70.1313 19.234 70.4309 19.234 70.4309L19.4232 70.4104C19.4232 70.4104 19.4836 70.4078 19.4836 70.4078C19.6288 70.4078 19.764 70.4593 19.8681 70.5531C19.8681 70.5531 19.8744 70.5597 19.8744 70.5597C19.9941 70.6676 20.0648 70.8258 20.0648 70.9879C20.0648 70.9879 20.0648 84 20.0648 84L55.3317 84C55.3317 84 55.3317 82.0247 55.3317 82.0247C55.3317 82.0247 55.3317 76.6736 55.3317 74.5388C55.3278 73.6797 55.4989 71.9809 55.8359 70.3425C56.0031 69.5208 56.21 68.7015 56.4442 67.9931C56.6757 67.2858 56.9433 66.6839 57.1669 66.3328C59.5127 62.5518 62.8294 59.45 65.8668 55.0633C68.9007 50.6806 71.4868 44.995 72.1954 36.3682C72.2855 35.2867 72.3306 34.2051 72.3306 33.1288C72.3306 24.9505 69.7174 17.009 64.4987 10.9223C64.4987 10.9223 64.4987 10.9223 64.4987 10.9223ZM68.2577 36.0386C67.5723 44.0572 65.3294 48.8552 62.6132 52.8227C59.901 56.7863 56.5471 59.9023 53.8168 64.2377C53.341 65.0042 52.9924 65.8531 52.6928 66.7557C52.2478 68.1074 51.9302 69.5812 51.7128 70.9534C51.4968 72.3294 51.3824 73.577 51.3811 74.5388C51.3811 75.9098 51.3811 77.9828 51.3811 80.0494C51.3811 80.0494 24.0155 80.0494 24.0155 80.0494C24.0155 80.0494 24.0155 70.9881 24.0155 70.9881C24.0155 69.7007 23.4677 68.4751 22.5081 67.6149C21.6708 66.8625 20.5907 66.4562 19.4834 66.4562C19.4024 66.4562 19.3239 66.465 19.2442 66.4703C19.2442 66.4703 15.4711 66.1694 15.4711 66.1694L15.2859 66.1899C15.2859 66.1899 14.9631 66.2079 14.9631 66.2079C14.2764 66.2079 13.6077 65.9597 13.0841 65.5044C12.4797 64.9784 12.1221 64.2223 12.0989 63.4185C12.0989 63.4185 12.0978 63.344 12.0978 63.344L10.4954 47.8859L4.48956 46.2295C4.48956 46.2295 4.41754 46.2154 4.41754 46.2154C4.23493 46.1793 4.08203 46.0584 4.00344 45.8886C4.00344 45.8886 3.95061 45.6443 3.95061 45.6443L4.02526 45.3588L11.7774 31.669L11.7941 29.5303C11.7941 29.5303 11.7941 29.5019 11.7941 29.5019C11.7903 29.3168 11.789 29.134 11.789 28.9516C11.802 21.1995 14.815 15.0624 19.6891 10.7349C24.5684 6.41762 31.3819 3.95094 38.9785 3.95094C39.7025 3.95094 40.433 3.97407 41.1687 4.01919C41.1687 4.01919 41.2908 2.04765 41.2908 2.04765C41.2908 2.04765 41.1698 4.01919 41.1698 4.01919C50.266 4.59144 56.9612 8.22067 61.4995 13.4946C66.0302 18.7725 68.3799 25.7826 68.3799 33.1286C68.3799 34.0942 68.3401 35.0651 68.2577 36.0386C68.2577 36.0386 68.2577 36.0386 68.2577 36.0386Z" fill="#1C274C" />
    </g>
  </g>
</svg>