<?xml version="1.0" encoding="utf-8"?>
<svg width="92" height="92" viewBox="0 0 92 92" fill="none" xmlns="http://www.w3.org/2000/svg">
  <g>
    <path d="M45.0417 0C52.2698 0 55.8839 0 58.1294 2.24553C60.375 4.49102 60.375 8.10512 60.375 15.3333C60.375 15.3333 60.375 73.7917 60.375 73.7917L77.625 73.7917C77.625 73.7917 79.5417 73.7917 79.5417 73.7917C81.1294 73.7917 82.4167 75.0789 82.4167 76.6667C82.4167 78.2544 81.1294 79.5417 79.5417 79.5417C79.5417 79.5417 2.875 79.5417 2.875 79.5417C1.2872 79.5417 0 78.2544 0 76.6667C0 75.0789 1.2872 73.7917 2.875 73.7917C2.875 73.7917 16.2917 73.7917 16.2917 73.7917L22.0417 73.7917C22.0417 73.7917 22.0417 15.3333 22.0417 15.3333C22.0417 8.10512 22.0417 4.49102 24.2872 2.24553C26.5327 0 30.1468 0 37.375 0C37.375 0 45.0417 0 45.0417 0ZM41.2083 8.625C42.7961 8.625 44.0833 9.91219 44.0833 11.5C44.0833 11.5 44.0833 16.2917 44.0833 16.2917C44.0833 16.2917 48.875 16.2917 48.875 16.2917C50.4628 16.2917 51.75 17.5789 51.75 19.1667C51.75 20.7545 50.4628 22.0417 48.875 22.0417C48.875 22.0417 44.0833 22.0417 44.0833 22.0417C44.0833 22.0417 44.0833 26.8333 44.0833 26.8333C44.0833 28.4211 42.7961 29.7083 41.2083 29.7083C39.6206 29.7083 38.3333 28.4211 38.3333 26.8333C38.3333 26.8333 38.3333 22.0417 38.3333 22.0417C38.3333 22.0417 33.5417 22.0417 33.5417 22.0417C31.9539 22.0417 30.6667 20.7545 30.6667 19.1667C30.6667 17.5789 31.9539 16.2917 33.5417 16.2917C33.5417 16.2917 38.3333 16.2917 38.3333 16.2917C38.3333 16.2917 38.3333 11.5 38.3333 11.5C38.3333 9.91219 39.6206 8.625 41.2083 8.625ZM30.6667 38.3333C30.6667 36.7456 31.9539 35.4583 33.5417 35.4583C33.5417 35.4583 48.875 35.4583 48.875 35.4583C50.4628 35.4583 51.75 36.7456 51.75 38.3333C51.75 39.9211 50.4628 41.2083 48.875 41.2083C48.875 41.2083 33.5417 41.2083 33.5417 41.2083C31.9539 41.2083 30.6667 39.9211 30.6667 38.3333ZM30.6667 49.8333C30.6667 48.2456 31.9539 46.9583 33.5417 46.9583C33.5417 46.9583 48.875 46.9583 48.875 46.9583C50.4628 46.9583 51.75 48.2456 51.75 49.8333C51.75 51.4211 50.4628 52.7083 48.875 52.7083C48.875 52.7083 33.5417 52.7083 33.5417 52.7083C31.9539 52.7083 30.6667 51.4211 30.6667 49.8333ZM41.2083 62.2917C42.7961 62.2917 44.0833 63.5789 44.0833 65.1667C44.0833 65.1667 44.0833 73.7917 44.0833 73.7917L38.3333 73.7917C38.3333 73.7917 38.3333 65.1667 38.3333 65.1667C38.3333 63.5789 39.6206 62.2917 41.2083 62.2917Z" fill="#1C274C" fill-rule="evenodd" transform="translate(3.833 7.667)" />
    <path d="M76.3328 3.40477C77.625 5.33846 77.625 8.03037 77.625 13.4141C77.625 13.4141 77.625 62.289 77.625 62.289C77.625 62.289 79.5417 62.289 79.5417 62.289C81.1294 62.289 82.4167 63.5762 82.4167 65.1639C82.4167 66.7521 81.1294 68.0389 79.5417 68.0389C79.5417 68.0389 2.875 68.0389 2.875 68.0389C1.2872 68.0389 0 66.7521 0 65.1639C0 63.5762 1.2872 62.289 2.875 62.289C2.875 62.289 4.79167 62.289 4.79167 62.289C4.79167 62.289 4.79167 13.4141 4.79167 13.4141C4.79167 8.03037 4.79167 5.33846 6.08373 3.40477C6.64309 2.56764 7.36184 1.84889 8.19896 1.28953C9.89031 0.159391 17.9232 0.0177479 22.0686 0C22.0528 1.11699 22.0529 2.28421 22.0531 3.48772C22.0531 3.48772 22.0531 3.8308 22.0531 3.8308L22.0531 8.62247C22.0531 8.62247 12.4583 8.62247 12.4583 8.62247C10.8705 8.62247 9.58333 9.90963 9.58333 11.4975C9.58333 13.0853 10.8705 14.3725 12.4583 14.3725C12.4583 14.3725 22.0531 14.3725 22.0531 14.3725L22.0531 20.1223C22.0531 20.1223 12.4583 20.1223 12.4583 20.1223C10.8705 20.1223 9.58333 21.4095 9.58333 22.9973C9.58333 24.5854 10.8705 25.8723 12.4583 25.8723C12.4583 25.8723 22.0531 25.8723 22.0531 25.8723L22.0531 31.6223C22.0531 31.6223 12.4583 31.6223 12.4583 31.6223C10.8705 31.6223 9.58333 32.9095 9.58333 34.4973C9.58333 36.0854 10.8705 37.3723 12.4583 37.3723C12.4583 37.3723 22.0531 37.3723 22.0531 37.3723L22.0531 62.289L60.3861 62.289L60.3861 37.3723C60.3861 37.3723 69.9583 37.3723 69.9583 37.3723C71.5461 37.3723 72.8333 36.0854 72.8333 34.4973C72.8333 32.9095 71.5461 31.6223 69.9583 31.6223C69.9583 31.6223 60.3861 31.6223 60.3861 31.6223L60.3861 25.8723C60.3861 25.8723 69.9583 25.8723 69.9583 25.8723C71.5461 25.8723 72.8333 24.5854 72.8333 22.9973C72.8333 21.4095 71.5461 20.1223 69.9583 20.1223C69.9583 20.1223 60.3861 20.1223 60.3861 20.1223L60.3861 14.3725C60.3861 14.3725 69.9583 14.3725 69.9583 14.3725C71.5461 14.3725 72.8333 13.0853 72.8333 11.4975C72.8333 9.90963 71.5461 8.62247 69.9583 8.62247C69.9583 8.62247 60.3861 8.62247 60.3861 8.62247L60.3861 3.8308L60.3861 3.48776C60.3861 3.48776 60.3861 3.48764 60.3861 3.48764C60.3865 2.28417 60.3865 1.11699 60.3708 0C64.5161 0.0177479 72.5263 0.159391 74.2175 1.28953C75.0547 1.84889 75.7735 2.56764 76.3328 3.40477Z" fill="#1F44C4" fill-opacity="0.5" transform="translate(3.833 19.169)" />
  </g>
</svg>