<?xml version="1.0" encoding="utf-8"?>
<svg width="98" height="98" viewBox="0 0 98 98" fill="none" xmlns="http://www.w3.org/2000/svg">
  <g>
    <path d="M0 16.3333C0 7.31268 7.31268 0 16.3333 0C25.354 0 32.6667 7.31268 32.6667 16.3333C32.6667 25.354 25.354 32.6667 16.3333 32.6667C7.31268 32.6667 0 25.354 0 16.3333Z" fill="none" stroke-width="6" stroke="#1F44C4" stroke-opacity="0.698" transform="translate(32.667 24.5)" />
    <path d="M0 0L12.25 0" fill="none" stroke-width="6" stroke="#1C274C" stroke-linecap="round" transform="translate(42.875 40.839)" />
    <path d="M0 12.25L0 0" fill="none" stroke-width="6" stroke="#1C274C" stroke-linecap="round" transform="translate(49.052 34.708)" />
    <path d="M4.08333 53.9657C1.43954 47.2123 0 40.022 0 33.2518C0 14.8873 14.6254 0 32.6667 0C50.7081 0 65.3333 14.8873 65.3333 33.2518C65.3333 51.4724 54.9073 72.7339 38.6402 80.3371C34.8484 82.1097 30.4849 82.1097 26.6932 80.3371C21.4977 77.9088 16.8981 74.0876 13.0437 69.4166" fill="none" stroke-width="6" stroke="#1C274C" stroke-linecap="round" transform="translate(16.333 8.167)" />
  </g>
</svg>