<?xml version="1.0" encoding="utf-8"?>
<svg width="102" height="102" viewBox="0 0 102 102" fill="none" xmlns="http://www.w3.org/2000/svg">
  <g>
    <path d="M46.75 0C20.9307 0 0 20.9307 0 46.75C4.29153e-06 72.5693 20.9307 93.5 46.75 93.5C72.5693 93.5 93.5 72.5693 93.5 46.75C93.4691 20.9425 72.5559 0.0300255 46.7492 0C46.7492 0 46.75 0 46.75 0ZM46.75 85C25.6251 85 8.5 67.8749 8.5 46.75C8.5 25.6251 25.6251 8.5 46.75 8.5C67.8749 8.5 85 25.6251 85 46.75C84.9747 67.8633 67.8651 84.9737 46.7509 85C46.7509 85 46.75 85 46.75 85ZM53.8347 39.6653L68 39.6653L68 53.8348L53.8347 53.8348L53.8347 68L39.6652 68L39.6652 53.8348L25.5 53.8348L25.5 39.6653L39.6652 39.6653L39.6652 25.5L53.8347 25.5L53.8347 39.6653Z" fill="#286BAD" transform="translate(4.25 4.25)" />
  </g>
</svg>