<?xml version="1.0" encoding="utf-8"?>
<svg width="104" height="104" viewBox="0 0 104 104" fill="none" xmlns="http://www.w3.org/2000/svg">
  <defs>
    <clipPath id="clip_path_1">
      <rect width="104" height="104" />
    </clipPath>
  </defs>
  <g clip-path="url(#clip_path_1)">
    <g transform="translate(-0 1.638)">
      <path d="M47.7797 30.3616C47.7797 30.3616 47.3995 15.918 47.3995 15.918C42.7565 15.7248 39.4991 11.0184 38.7265 6.37702C37.8782 1.28569 32.3447 -2.71445 26.5424 2.31492C20.7383 7.3443 6.61786 17.2085 1.39491 18.5623C-3.82764 19.9163 7.004 23.5917 11.0675 22.0447C6.48786 26.1697 13.259 29.4575 19.3512 26.2664C17.3211 29.9418 25.9294 31.0061 30.9571 26.7511C36.7608 23.0755 44.459 27.3306 47.7797 30.3616C47.7797 30.3616 47.7797 30.3616 47.7797 30.3616Z" fill="#286BAD" transform="translate(0 0.046)" />
      <path d="M46.3832 18.5625C41.1604 17.2087 27.0412 7.34454 21.2377 2.31496C15.4355 -2.71441 9.90031 1.28553 9.05206 6.37706C8.27917 11.0185 5.02186 15.7249 0.381878 15.918C0.381878 15.918 0 30.3617 0 30.3617C3.32089 27.3308 11.0203 23.0758 16.8226 26.7511C21.8504 31.0062 30.4588 29.942 28.4271 26.2665C34.5193 29.4575 41.2904 26.1698 36.7124 22.0447C40.7741 23.5919 51.6057 19.9166 46.3832 18.5625C46.3832 18.5625 46.3832 18.5625 46.3832 18.5625Z" fill="#286BAD" transform="matrix(1 0 0 1 56.222 0.046)" />
      <path d="M0 7.45042C0 3.33567 3.33567 0 7.45042 0C11.5652 0 14.9008 3.33567 14.9008 7.45042C14.9008 11.5652 11.5652 14.9008 7.45042 14.9008C3.33567 14.9008 0 11.5652 0 7.45042Z" fill="#286BAD" fill-rule="evenodd" transform="matrix(1 0 0 1 44.55 0)" />
      <path d="M10.9696 16.8271C12.9196 16.3199 14.9484 15.8038 16.9 15.3057C12.9965 14.3427 10.1861 13.7918 8.7234 11.5396C8.19954 10.7321 8.23427 9.83859 8.43963 9.24526C8.86213 8.04073 10.0819 7.51687 13.599 6.33956C15.688 5.64223 16.7627 4.49051 16.5468 3.17568C16.3928 2.23847 16.3249 1.65265 14.7853 1.4217C13.899 1.29211 12.9104 0.940296 11.8796 0.43309C10.6675 -0.160034 9.47211 0.0284653 8.165 0.0284653C7.9763 0.0284653 7.77866 0.0451221 7.58081 0.07234C4.87296 0.493624 2.86994 1.99675 1.77855 3.63008C-0.499098 7.05192 -1.32643 12.5282 3.85855 16.7152C4.7267 17.42 5.75899 17.9953 6.90177 18.4948C8.06243 17.7812 9.41179 17.2226 10.9696 16.8271C10.9696 16.8271 10.9696 16.8271 10.9696 16.8271Z" fill="#286BAD" transform="matrix(1 0 0 1 30.492 29.583)" />
      <path d="M0 2.42551C1.82183 4.66862 2.45721 6.80895 1.83828 8.27917C1.7357 8.59767 2.21873 8.8723 2.38184 8.52069C2.46634 8.4693 2.60528 8.25337 3.13665 7.03239C4.35012 4.28228 4.12668 1.95325 3.19719 0C1.89881 0.809044 0.842155 1.63475 0 2.42551C0 2.42551 0 2.42551 0 2.42551Z" fill="#286BAD" transform="matrix(1 0 0 1 53.461 88.12)" />
      <path d="M25.8351 0C23.6434 0.833218 21.2193 1.43548 18.8373 2.02739C18.1158 2.20837 17.4034 2.38956 16.6878 2.56912C16.4827 2.62194 16.2682 2.68084 16.06 2.73365C16.7995 2.92987 17.5135 3.12 18.1926 3.30119C20.7723 3.98795 22.9217 5.56968 21.6327 9.4642C20.9957 11.3902 19.1905 12.3275 15.5105 13.4958C14.9007 13.6859 14.2396 13.8913 13.5256 14.1056C12.9142 14.2777 12.2713 14.468 11.5815 14.6731C11.5815 14.6731 11.5815 14.6731 11.5737 14.6731C10.9973 14.8377 10.3964 15.0097 9.76836 15.1893C9.36374 15.3099 8.94287 15.4294 8.51244 15.559C6.77674 16.0737 5.33212 16.7968 4.16232 17.6737C3.48307 18.1718 2.89137 18.7318 2.39168 19.3324C0.802425 21.2329 0.0537109 23.5272 0.00231934 25.909C-0.076088 29.0985 1.8406 32.4691 4.97137 33.9467C5.36685 34.137 5.75319 34.3346 6.1306 34.5323C6.9819 33.4139 8.10802 32.2967 9.56159 31.1874C9.52685 31.1707 9.49354 31.1452 9.45738 31.1285C9.45738 31.1285 8.93353 30.8267 8.93353 30.8267C7.29288 29.8545 5.71074 28.4357 5.41804 26.949C5.15236 25.6175 5.02256 23.6992 8.53053 21.8516C8.92581 21.6448 9.37268 21.4305 9.87094 21.2327C10.2061 21.0862 10.5758 20.94 10.9638 20.8024C11.1691 20.7255 11.3668 20.656 11.5735 20.5879C12.2016 20.3556 12.8203 20.1321 13.4212 19.9087C15.4408 19.1525 17.2988 18.422 18.9835 17.6733C19.7745 17.3201 20.5216 16.9682 21.2281 16.6075C26.1187 14.1487 29.0078 11.4485 29.0078 7.67467C29.0078 4.1856 27.9497 1.67558 25.8351 0C25.8351 0 25.8351 0 25.8351 0Z" fill="#286BAD" transform="translate(40.366 50.597)" />
      <path d="M0 0.0511932C0 0.0422516 0.00893784 0.0331192 0.018074 0.0255966C0.018074 0.016655 0.00893021 0.00752258 0 0C0 0 0 0.0511932 0 0.0511932C0 0.0511932 0 0.0511932 0 0.0511932Z" fill="#286BAD" transform="translate(53.437 90.525)" />
      <path d="M8.53638 2.51896C12.0443 4.37553 11.9054 6.2849 11.6487 7.61638C11.356 9.10326 9.77382 10.5221 8.13175 11.494C8.13175 11.494 7.59896 11.7959 7.59896 11.7959C7.56443 11.8125 7.53111 11.8381 7.49475 11.8548C7.38467 11.9243 7.26381 11.9921 7.14315 12.0691C6.62843 12.3709 6.0609 12.7244 5.49337 13.1272C4.99531 13.4623 4.49562 13.8412 4.00507 14.2533C3.27464 14.8631 2.57873 15.5423 1.96894 16.3091C1.5042 16.8933 1.09957 17.5197 0.782696 18.1899C-0.154728 20.134 -0.37796 22.4721 0.826572 25.2222C1.36689 26.4434 1.5044 26.6592 1.59032 26.7105C1.75343 27.0621 2.23484 26.7875 2.13063 26.469C1.51334 24.9988 2.1412 22.8585 3.96323 20.6231C4.01462 20.667 4.06581 20.7092 4.1172 20.762C4.1172 20.762 4.10806 20.4435 4.10806 20.4435C4.51268 19.9621 4.97743 19.4714 5.49378 18.99C5.96625 18.5431 6.48259 18.1054 7.05012 17.6753C7.65076 17.212 8.30442 16.7562 9.00926 16.3093C9.61153 15.9305 10.2485 15.5606 10.9278 15.1999C11.3052 15.0022 11.6915 14.8046 12.0962 14.6142C15.2176 13.1367 17.1406 9.76605 17.065 6.57658C17.0047 4.19473 16.2651 1.90044 14.6742 0C12.799 0.869179 10.737 1.69488 8.53638 2.51896C8.53638 2.51896 8.53638 2.51896 8.53638 2.51896Z" fill="#286BAD" transform="matrix(1 0 0 1 46.446 69.93)" />
      <path d="M31.2997 0.0723991C31.1035 0.0451813 30.9045 0.0285244 30.7082 0.0285244C29.4009 0.0285244 28.2057 -0.160179 27.0012 0.433149C25.9701 0.940351 24.9815 1.29196 24.0969 1.42176C22.5572 1.65292 22.4805 2.23853 22.3338 3.17574C22.1195 4.49037 23.1942 5.64208 25.2832 6.33962C28.7989 7.51693 30.0198 8.04079 30.4395 9.24532C30.6477 9.83844 30.681 10.7322 30.1557 11.5396C28.6871 13.7919 25.8751 14.3427 21.9731 15.3058C21.8357 15.3403 21.6893 15.3736 21.552 15.4083C20.9936 15.5456 20.3822 15.701 19.7194 15.8733C19.007 16.0528 18.2433 16.2413 17.4342 16.4481C17.4342 16.4481 15.2939 16.9901 15.2939 16.9901C12.8003 17.6254 10.0923 18.323 7.51278 18.9841C6.89549 19.1471 6.30988 19.3282 5.76022 19.5517C5.76022 19.5517 5.76022 19.5517 5.75108 19.5517C4.76999 19.9396 3.90203 20.4286 3.17139 21.0142C1.05666 22.6898 0 25.1998 0 28.6897C0 32.4633 2.88763 35.1637 7.77969 37.63C9.3013 36.2731 11.2273 35.2073 13.496 34.51C9.81744 33.3416 8.01227 32.4044 7.36613 30.4784C6.0773 26.5839 8.22657 25.0021 10.8048 24.3154C11.4841 24.1342 12.207 23.9439 12.9466 23.7478C13.7376 23.5486 14.5541 23.3343 15.3965 23.1198C16.0666 22.9477 16.7458 22.7757 17.434 22.5945C18.1555 22.4149 18.877 22.2246 19.6091 22.0361C20.3986 21.8399 21.1894 21.6329 21.9804 21.4261C24.3622 20.8072 26.8377 20.2563 29.0989 19.5515C29.0989 19.5515 29.108 19.5515 29.108 19.5515C30.1131 19.2346 31.0853 18.8903 31.979 18.4948C33.123 17.9953 34.1541 17.4201 35.022 16.7152C40.207 12.528 39.3811 7.05178 37.102 3.63014C36.0122 1.99701 34.0001 0.493679 31.2997 0.0723991C31.2997 0.0723991 31.2997 0.0723991 31.2997 0.0723991Z" fill="#286BAD" transform="matrix(1 0 0 1 34.506 29.583)" />
      <path d="M0 4.11755L0 4.12669L0.0180779 4.99464L0.0422516 6.75614L0.102581 10.1524L2.63108 10.1524L2.68369 7.03991C2.68369 7.03991 2.81064 0 2.81064 0C2.20086 0.567535 1.7028 1.12592 1.30711 1.65141C0.558388 2.62925 0.146252 3.48949 0 4.11755C0 4.11755 0 4.11755 0 4.11755Z" fill="#286BAD" transform="translate(50.633 90.572)" />
      <path d="M1.65141 7.48678C1.96991 7.29056 2.30486 7.08377 2.64915 6.88593C2.64915 6.88593 3.17281 6.58408 3.17281 6.58408C3.23314 6.55077 3.29367 6.51624 3.354 6.47237C3.354 6.47237 3.44012 1.40075 3.44012 1.40075C3.44012 1.40075 3.46572 0 3.46572 0C2.92236 0.197845 2.36539 0.404625 1.80537 0.600845C1.75418 0.618919 1.7028 0.635574 1.66034 0.653656C1.00689 0.893753 0.455814 1.11699 0 1.34043C0 1.34043 0.0875473 6.54205 0.0875473 6.54205C0.0875473 6.54205 0.120861 8.52679 0.120861 8.52679C0.594753 8.17516 1.10196 7.83107 1.65141 7.48678C1.65141 7.48678 1.65141 7.48678 1.65141 7.48678Z" fill="#286BAD" transform="translate(50.279 72.905)" />
      <path d="M1.28131 9.20725C1.53035 9.13778 1.76272 9.06851 1.9953 9.00067C2.7168 8.78475 3.37939 8.58853 3.98938 8.40755C3.98938 8.40755 4.10861 1.09139 4.10861 1.09139C4.10861 1.09139 4.13583 0 4.13583 0C3.67088 0.120655 3.21507 0.232376 2.75925 0.353237C2.5025 0.421284 2.24453 0.481609 1.9955 0.549458C1.31625 0.7215 0.655079 0.893551 0 1.05646C0 1.05646 0.129799 8.4496 0.129799 8.4496C0.129799 8.4496 0.147877 9.53347 0.147877 9.53347C0.534222 9.42155 0.911427 9.31004 1.28131 9.20725C1.28131 9.20725 1.28131 9.20725 1.28131 9.20725Z" fill="#286BAD" transform="matrix(1 0 0 1 49.944 53.941)" />
      <path d="M0 0.000205994L0.541939 26.9299C0.541939 26.9299 0.558388 28.0378 0.558388 28.0378C1.31462 27.849 2.04527 27.6604 2.7426 27.4792C3.57581 27.274 4.35764 27.0747 5.07183 26.895C5.07183 26.895 5.61356 0 5.61356 0C4.71108 0.24172 3.77365 0.378828 2.80313 0.378828C1.83097 0.379034 0.894966 0.241926 0 0.000205994C0 0.000205994 0 0.000205994 0 0.000205994Z" fill="#286BAD" transform="translate(49.197 16.24)" />
    </g>
  </g>
</svg>