<?xml version="1.0" encoding="utf-8"?>
<svg width="128" height="128" viewBox="0 0 128 128" fill="none" xmlns="http://www.w3.org/2000/svg">
  <g>
    <g transform="translate(6.531 39.591)">
      <path d="M0 7.8017C0 3.49294 3.49294 0 7.8017 0C12.1105 0 15.6034 3.49294 15.6034 7.8017C15.6034 12.1105 12.1105 15.6034 7.8017 15.6034C3.49294 15.6034 0 12.1105 0 7.8017Z" fill="#000000" fill-rule="evenodd" transform="translate(8.858 0)" />
      <path d="M30.8685 33.8685C30.8685 33.8685 21.3685 33.8685 21.3685 33.8685C21.3685 33.8685 20.8685 33.8685 20.4685 33.8685C16.1685 33.4685 12.4685 30.3685 11.3685 26.0685C11.3685 26.0685 4.86855 1.86855 4.86855 1.86855C4.46855 0.468548 3.06855 -0.231449 1.86855 0.0685501C0.468548 0.468548 -0.231452 1.86855 0.0685482 3.06855C0.0685482 3.06855 6.46855 27.2685 6.46855 27.2685C8.16855 33.5685 13.4685 38.1685 19.9685 38.6685C20.5686 38.7685 21.2685 38.7685 21.2685 38.7685C21.2685 38.7685 30.7685 38.7685 30.7685 38.7685C32.1686 38.7685 33.1686 37.6685 33.2686 36.2685C33.2685 34.8685 32.2685 33.8685 30.8685 33.8685C30.8685 33.8685 30.8685 33.8685 30.8685 33.8685Z" fill="#000000" transform="translate(0 24.04)" />
      <path d="M33.939 25.9594C33.939 25.9594 20.939 25.9594 20.939 25.9594C20.639 21.0594 19.839 16.1594 18.639 11.2594C18.539 10.8594 18.239 9.85936 18.239 9.75936C16.539 3.45936 10.539 -0.540638 4.23896 0.0593605C4.23896 0.0593605 3.43896 0.159359 3.23896 0.159359C0.938961 0.759357 -0.461039 3.15936 0.138961 5.55936C0.138961 5.55936 6.83896 30.4594 6.83896 30.4594C7.53896 33.2594 9.93896 35.3594 12.939 35.5594C12.939 35.5594 13.539 35.5594 13.539 35.5594L29.039 35.5594C29.039 35.5594 29.039 53.3594 29.039 53.3594C29.039 56.0594 31.139 58.2594 33.939 58.2594C36.639 58.2594 38.839 56.1594 38.839 53.3594C38.839 53.3594 38.839 30.8594 38.839 30.8594C38.839 29.5594 38.339 28.3594 37.339 27.4594C36.439 26.4594 35.139 25.9594 33.939 25.9594C33.939 25.9594 33.939 25.9594 33.939 25.9594Z" fill="#000000" transform="translate(8.13 18.349)" />
    </g>
    <g transform="translate(74.1 39.653)">
      <path d="M0 7.8017C0 3.49294 3.49294 0 7.80171 0C12.1105 0 15.6034 3.49294 15.6034 7.8017C15.6034 12.1105 12.1105 15.6034 7.80171 15.6034C3.49294 15.6034 0 12.1105 0 7.8017Z" fill="#000000" fill-rule="evenodd" transform="translate(22.494 0)" />
      <path d="M2.4 33.8685C2.4 33.8685 11.9 33.8685 11.9 33.8685C11.9 33.8685 12.4 33.8685 12.8 33.8685C17.1 33.4685 20.8 30.3685 21.9 26.0685C21.9 26.0685 28.4 1.86855 28.4 1.86855C28.8 0.468548 30.2 -0.231449 31.4 0.0685501C32.8 0.468548 33.5 1.86855 33.2 3.06855C33.2 3.06855 26.8 27.2685 26.8 27.2685C25.1 33.5685 19.8 38.1685 13.3 38.6685C12.7 38.7685 12 38.7685 12 38.7685C12 38.7685 2.5 38.7685 2.5 38.7685C1.1 38.7685 0.0999985 37.6685 0 36.2685C7.62939e-06 34.8685 1.10001 33.8685 2.4 33.8685C2.4 33.8685 2.4 33.8685 2.4 33.8685Z" fill="#000000" transform="translate(13.7 23.978)" />
      <path d="M4.9 25.9594C4.9 25.9594 17.9 25.9594 17.9 25.9594C18.2 21.0594 19 16.1594 20.2 11.2594C20.3 10.8594 20.6 9.85936 20.6 9.75936C22.3 3.45936 28.3 -0.540638 34.6 0.0593605C34.6 0.0593605 35.4 0.159359 35.6 0.159359C37.9 0.759357 39.3 3.15936 38.7 5.55936C38.7 5.55936 31.9 30.4594 31.9 30.4594C31.2 33.2594 28.8 35.3594 25.8 35.5594C25.8 35.5594 25.2 35.5594 25.2 35.5594L9.8 35.5594C9.8 35.5594 9.8 53.3594 9.8 53.3594C9.8 56.0594 7.70001 58.2594 4.9 58.2594C2.1 58.2594 0 56.1594 0 53.3594C0 53.3594 0 30.8594 0 30.8594C0 29.5594 0.5 28.3594 1.5 27.4594C2.4 26.4594 3.7 25.9594 4.9 25.9594C4.9 25.9594 4.9 25.9594 4.9 25.9594Z" fill="#000000" transform="translate(0 18.287)" />
    </g>
    <rect width="50.6" height="6" fill="#000000" fill-rule="evenodd" transform="translate(38.8 70.8)" />
    <path d="M0 7.2C0 3.22355 3.22355 0 7.2 0C11.1764 0 14.4 3.22355 14.4 7.2C14.4 11.1764 11.1764 14.4 7.2 14.4C3.22355 14.4 0 11.1764 0 7.2Z" fill="#000000" fill-rule="evenodd" transform="translate(56.9 36)" />
    <path d="M6.49999 15.1L6.49999 10.8C6.49999 10.8 6.39999 10.8 6.39999 10.8C6.39999 10.3 6.8 9.9 7.3 9.9C7.8 9.9 8.2 10.3 8.2 10.8C8.2 10.8 8.2 15.1 8.2 15.1L28.1 15.1L28.1 10.8C28.1 10.8 28 10.8 28 10.8C28 10.3 28.4 9.9 28.9 9.9C29.4 9.9 29.8 10.3 29.8 10.8C29.8 10.8 29.8 15.1 29.8 15.1L36 15.1C36 15.1 36 9 36 9C36 4 32 0 27 0C27 0 9 0 9 0C4 0 0 4 0 9C0 9 0 15.1 0 15.1L6.49999 15.1L6.49999 15.1Z" fill="#000000" transform="translate(46 52.8)" />
  </g>
</svg>