<?xml version="1.0" encoding="utf-8"?>
<svg width="114" height="114" viewBox="0 0 114 114" fill="none" xmlns="http://www.w3.org/2000/svg">
  <defs>
    <clipPath id="clip_path_1">
      <rect width="114" height="114" />
    </clipPath>
  </defs>
  <g clip-path="url(#clip_path_1)">
    <path d="M17.1 0C7.67028 0 0 7.67028 0 17.1C0 26.5297 7.67028 34.2 17.1 34.2C26.5297 34.2 34.2 26.5297 34.2 17.1C34.2 7.67028 26.5297 0 17.1 0C17.1 0 17.1 0 17.1 0ZM17.1 28.5C10.8035 28.5 5.69999 23.3965 5.69999 17.1C5.69999 10.8035 10.8035 5.69999 17.1 5.69999C23.3965 5.69999 28.5 10.8035 28.5 17.1C28.5 23.3965 23.3967 28.5 17.1 28.5C17.1 28.5 17.1 28.5 17.1 28.5Z" fill="#000000" transform="translate(5.7 0)" />
    <path d="M22.8 31.35C22.8 31.35 8.55 31.35 8.55 31.35C6.9805 31.35 5.7 30.0695 5.7 28.5C5.7 28.5 5.7 2.85 5.7 2.85C5.7 1.27493 4.42507 0 2.85 0C1.27493 0 0 1.27493 0 2.85C0 2.85 0 28.5 0 28.5C0 33.2139 3.83614 37.05 8.55 37.05C8.55 37.05 11.4 37.05 11.4 37.05L11.4 54.15C11.4 54.15 8.55 54.15 8.55 54.15C6.97493 54.15 5.7 55.4249 5.7 57C5.7 58.5751 6.97493 59.85 8.55 59.85C8.55 59.85 19.95 59.85 19.95 59.85C21.5251 59.85 22.8 58.5751 22.8 57C22.8 55.4249 21.5251 54.15 19.95 54.15C19.95 54.15 17.1 54.15 17.1 54.15L17.1 37.05C17.1 37.05 22.8 37.05 22.8 37.05C25.0934 37.05 25.6157 38.6137 25.65 39.9285C25.6671 41.4864 26.9363 42.75 28.5 42.75C30.0751 42.75 31.35 41.4751 31.35 39.9C31.35 36.4649 29.0738 31.35 22.8 31.35C22.8 31.35 22.8 31.35 22.8 31.35Z" fill="#000000" transform="matrix(1 0 0 1 0 54.15)" />
    <path d="M17.1 -2.06469e-05C7.67029 -2.06469e-05 0 7.67026 0 17.1C0 26.5297 7.67029 34.2 17.1 34.2C26.5297 34.2 34.2 26.5297 34.2 17.1C34.2 7.67026 26.5297 -2.06469e-05 17.1 -2.06469e-05C17.1 -2.06469e-05 17.1 -2.06469e-05 17.1 -2.06469e-05ZM17.1 28.5C10.8035 28.5 5.69999 23.3965 5.69999 17.1C5.69999 10.8035 10.8035 5.69997 17.1 5.69997C23.3965 5.69997 28.5 10.8035 28.5 17.1C28.5 23.3965 23.3965 28.5 17.1 28.5C17.1 28.5 17.1 28.5 17.1 28.5Z" fill="#000000" transform="matrix(1 0 0 1 74.1 -0)" />
    <path d="M28.5 0C26.9249 0 25.65 1.27493 25.65 2.85C25.65 2.85 25.65 28.5 25.65 28.5C25.65 30.0695 24.3695 31.35 22.8 31.35C22.8 31.35 8.55 31.35 8.55 31.35C2.27621 31.35 0 36.4649 0 39.9C0 41.4751 1.27493 42.75 2.85 42.75C4.41371 42.75 5.68285 41.4864 5.7 39.9285C5.73428 38.6137 6.25664 37.05 8.55 37.05C8.55 37.05 14.25 37.05 14.25 37.05L14.25 54.15C14.25 54.15 11.4 54.15 11.4 54.15C9.82493 54.15 8.55 55.4249 8.55 57C8.55 58.5751 9.82494 59.85 11.4 59.85C11.4 59.85 22.8 59.85 22.8 59.85C24.3751 59.85 25.65 58.5751 25.65 57C25.65 55.4249 24.3751 54.15 22.8 54.15C22.8 54.15 19.95 54.15 19.95 54.15L19.95 37.05C19.95 37.05 22.8 37.05 22.8 37.05C27.5139 37.05 31.35 33.2138 31.35 28.5C31.35 28.5 31.35 2.85 31.35 2.85C31.35 1.27493 30.0751 0 28.5 0C28.5 0 28.5 0 28.5 0Z" fill="#000000" transform="matrix(1 0 0 1 82.65 54.15)" />
    <path d="M79.8 0C73.5149 0 68.4 5.11486 68.4 11.4C68.4 11.4 68.4 24.3922 68.4 24.3922L59.85 27.2422L59.85 22.8C59.85 22.8 62.7 22.8 62.7 22.8C64.2751 22.8 65.55 21.5251 65.55 19.95C65.55 18.3749 64.2751 17.1 62.7 17.1C62.7 17.1 28.5 17.1 28.5 17.1C26.9249 17.1 25.65 18.3749 25.65 19.95C25.65 21.5251 26.9249 22.8 28.5 22.8C28.5 22.8 31.35 22.8 31.35 22.8L31.35 27.2422L22.8 24.3922C22.8 24.3922 22.8 11.4 22.8 11.4C22.8 5.11486 17.6851 0 11.4 0C5.11486 0 0 5.11486 0 11.4C0 11.4 0 34.2 0 34.2C0 36.8162 1.78036 39.0962 4.31686 39.729C4.31686 39.729 23.6171 44.5551 23.6171 44.5551C23.6171 44.5551 28.6104 69.5191 28.6104 69.5191C29.1441 72.1829 31.4829 74.1 34.2 74.1C34.2 74.1 57 74.1 57 74.1C59.7171 74.1 62.0559 72.1829 62.5898 69.5191C62.5898 69.5191 67.5831 44.5551 67.5831 44.5551C67.5831 44.5551 86.8834 39.729 86.8834 39.729C89.4196 39.0962 91.2 36.8162 91.2 34.2C91.2 34.2 91.2 11.4 91.2 11.4C91.2 5.11486 86.0851 0 79.8 0C79.8 0 79.8 0 79.8 0ZM31.35 54.15L28.5 39.9L5.69999 34.2C5.69999 34.2 5.69999 11.4 5.69999 11.4C5.69999 8.25163 8.25163 5.69999 11.4 5.69999C14.5484 5.69999 17.1 8.25163 17.1 11.4C17.1 11.4 17.1 28.5 17.1 28.5L31.35 33.2499L31.35 54.15L31.35 54.15ZM54.15 29.3094L54.15 51.3L54.15 68.4L37.05 68.4L37.05 51.3L37.05 29.3094L37.05 22.8L54.15 22.8L54.15 29.3094L54.15 29.3094ZM85.5 34.2L62.7 39.9L59.85 54.15L59.85 33.2499L74.1 28.5C74.1 28.5 74.1 11.4 74.1 11.4C74.1 8.25163 76.6517 5.69999 79.8 5.69999C82.9484 5.69999 85.5 8.25163 85.5 11.4C85.5 11.4 85.5 34.2 85.5 34.2L85.5 34.2Z" fill="#000000" transform="translate(11.4 39.9)" />
  </g>
</svg>