<?xml version="1.0" encoding="utf-8"?>
<svg width="92" height="92" viewBox="0 0 92 92" fill="none" xmlns="http://www.w3.org/2000/svg">
  <g>
    <path d="M0 38.3333C0 17.1624 17.1624 0 38.3333 0C59.5042 0 76.6667 17.1624 76.6667 38.3333C76.6667 59.5042 59.5042 76.6667 38.3333 76.6667C17.1624 76.6667 0 59.5042 0 38.3333Z" fill="none" stroke-width="6" stroke="#1F44C4" stroke-opacity="0.5" transform="translate(7.667 7.667)" />
    <path d="M0 0L0 46" fill="none" stroke-width="6" stroke="#1C274C" stroke-linecap="round" transform="translate(45.987 23)" />
    <path d="M23 9.58334C23 4.29061 17.8515 0 11.5 0C5.14855 0 0 4.29061 0 9.58334C0 14.876 5.14855 19.1667 11.5 19.1667C17.8515 19.1667 23 23.4573 23 28.75C23 34.0427 17.8515 38.3333 11.5 38.3333C5.14855 38.3333 0 34.0427 0 28.75" fill="none" stroke-width="6" stroke="#1C274C" stroke-linecap="round" transform="translate(34.5 26.833)" />
  </g>
</svg>