<?xml version="1.0" encoding="utf-8"?>
<svg width="172" height="172" viewBox="0 0 172 172" fill="none" xmlns="http://www.w3.org/2000/svg">
  <g>
    <path d="M10.1053 60.4871C10.6786 27.0186 17.2719 21.5002 37.8402 9.31683C40.2052 7.88349 40.9935 4.8735 39.5601 2.43683C38.1268 0.0718269 35.1167 -0.716434 32.68 0.716898C8.45667 15.0502 0 23.7934 0 65.5038C0 65.5038 0 104.132 0 104.132C0 116.387 9.96188 126.277 22.1452 126.277C22.1452 126.277 43.6452 126.277 43.6452 126.277C56.2585 126.277 65.7898 116.745 65.7898 104.132C65.7898 104.132 65.7898 82.6321 65.7898 82.6321C65.8615 70.0188 56.3303 60.4871 43.717 60.4871C43.717 60.4871 10.1053 60.4871 10.1053 60.4871Z" fill="#7F3AF0" transform="translate(14.263 22.861)" />
    <path d="M10.105 60.4871C10.6783 27.0186 17.2724 21.5002 37.8407 9.31683C40.2057 7.88349 40.994 4.8735 39.5607 2.43683C38.1274 0.0718269 35.1167 -0.716434 32.68 0.716898C8.45667 15.0502 0 23.7934 0 65.5038C0 65.5038 0 104.132 0 104.132C0 116.387 9.96238 126.277 22.1457 126.277C22.1457 126.277 43.6457 126.277 43.6457 126.277C56.259 126.277 65.79 116.745 65.79 104.132C65.79 104.132 65.79 82.6321 65.79 82.6321C65.8617 70.0188 56.33 60.4871 43.7167 60.4871C43.7167 60.4871 10.105 60.4871 10.105 60.4871Z" fill="#7F3AF0" fill-opacity="0.4" transform="translate(91.809 22.861)" />
  </g>
</svg>