<?xml version="1.0" encoding="utf-8"?>
<svg width="100" height="100" viewBox="0 0 100 100" fill="none" xmlns="http://www.w3.org/2000/svg">
  <g>
    <path d="M32.1875 75C32.1875 75 4.16667 45.8333 4.16667 45.8333L4.16667 37.5C4.16667 37.5 18.75 37.5 18.75 37.5C22.4306 37.5 25.6076 36.3021 28.2813 33.9063C30.9549 31.5104 32.5694 28.5417 33.125 25C33.125 25 0 25 0 25L0 16.6667C0 16.6667 31.875 16.6667 31.875 16.6667C30.6945 14.2361 28.941 12.2396 26.6146 10.6771C24.2882 9.11458 21.6667 8.33333 18.75 8.33333C18.75 8.33333 0 8.33333 0 8.33333L0 0L50 0L50 8.33333C50 8.33333 36.4583 8.33333 36.4583 8.33333C37.4306 9.51389 38.2986 10.7986 39.0625 12.1875C39.8264 13.5764 40.4167 15.0694 40.8333 16.6667C40.8333 16.6667 50 16.6667 50 16.6667L50 25C50 25 41.5625 25 41.5625 25C41.007 30.9028 38.5764 35.8507 34.2708 39.8438C29.9653 43.8368 24.7917 45.8333 18.75 45.8333C18.75 45.8333 15.7292 45.8333 15.7292 45.8333L43.75 75C43.75 75 32.1875 75 32.1875 75Z" fill="#1F1F1F" transform="translate(25 12.5)" />
  </g>
</svg>