<?xml version="1.0" encoding="utf-8"?>
<svg width="88" height="88" viewBox="0 0 88 88" fill="none" xmlns="http://www.w3.org/2000/svg">
  <g>
    <path d="M0 11C0 4.92487 4.92487 0 11 0C17.0751 0 22 4.92487 22 11C22 17.0751 17.0751 22 11 22C4.92487 22 0 17.0751 0 11Z" fill="#1C274C" fill-rule="evenodd" transform="translate(58.667 47.667)" />
    <path d="M39.4167 0C40.9354 0 42.1667 1.23123 42.1667 2.75C42.1667 2.75 42.1667 3.67191 42.1667 3.67191C42.5744 3.67807 42.9224 3.69142 43.2469 3.72013C49.8843 4.30705 55.1452 9.56828 55.7322 16.2055C55.7858 16.8121 55.7858 17.4994 55.7858 18.5089C55.7858 18.5089 55.7858 22.9937 55.7858 22.9937C55.7858 38.1091 43.5321 50.3628 28.4167 50.3628C12.7226 50.3628 4.62532e-05 37.6402 4.62532e-05 21.9461C4.62532e-05 21.9461 9.53674e-06 18.509 9.53674e-06 18.509C-0.000100613 17.4995 -0.000173569 16.8122 0.0534697 16.2055C0.640393 9.56828 5.90166 4.30705 12.5389 3.72013C13.1097 3.66964 13.7519 3.66674 14.6667 3.66663C14.6667 3.66663 14.6667 2.75 14.6667 2.75C14.6667 1.23123 15.8979 0 17.4167 0C18.9355 0 20.1667 1.23123 20.1667 2.75C20.1667 2.75 20.1667 10.0833 20.1667 10.0833C20.1667 11.6021 18.9355 12.8333 17.4167 12.8333C15.8979 12.8333 14.6667 11.6021 14.6667 10.0833C14.6667 10.0833 14.6667 9.16674 14.6667 9.16674C13.7009 9.1674 13.3244 9.17209 13.0233 9.19875C9.04102 9.5509 5.88424 12.7076 5.53209 16.69C5.50272 17.0221 5.50005 17.4461 5.50005 18.652C5.50005 18.652 5.50005 21.9461 5.50005 21.9461C5.50005 34.6027 15.7602 44.8628 28.4167 44.8628C40.4947 44.8628 50.2858 35.0717 50.2858 22.9937C50.2858 22.9937 50.2858 18.652 50.2858 18.652C50.2858 17.4461 50.2832 17.0221 50.2535 16.69C49.9015 12.7076 46.7449 9.5509 42.7625 9.19875C42.6074 9.185 42.4321 9.17712 42.1667 9.17261C42.1667 9.17261 42.1667 10.0833 42.1667 10.0833C42.1667 11.6021 40.9354 12.8333 39.4167 12.8333C37.8979 12.8333 36.6667 11.6021 36.6667 10.0833C36.6667 10.0833 36.6667 2.75 36.6667 2.75C36.6667 1.23123 37.8979 0 39.4167 0Z" fill="#29314C" transform="matrix(1 0 0 1 4.583 4.583)" />
    <path d="M0 7.524C0 19.1682 9.43947 28.6073 21.0833 28.6073C21.0833 28.6073 24.3188 28.6073 24.3188 28.6073C30.9657 28.6073 36.7605 24.9722 39.8295 19.5947C40.7345 18.0085 41.1847 16.3101 41.404 14.678C40.7594 14.7957 40.0954 14.8573 39.4167 14.8573C38.188 14.8573 37.0062 14.6557 35.9029 14.2839C35.7449 15.2632 35.4787 16.1216 35.0526 16.8685C32.9226 20.6012 28.9117 23.1073 24.3188 23.1073C24.3188 23.1073 21.0833 23.1073 21.0833 23.1073C12.4769 23.1073 5.5 16.1304 5.5 7.524C5.5 7.524 5.5 0 5.5 0C4.59558 0.0905685 3.67818 0.136768 2.75004 0.136768C1.8223 0.136768 0.904936 0.0920334 0 0.00513458C0 0.00513458 0 7.524 0 7.524Z" fill="#1F44C4" fill-opacity="0.5" transform="matrix(1 0 0 1 30.25 54.81)" />
  </g>
</svg>