<?xml version="1.0" encoding="utf-8"?>
<svg width="100" height="100" viewBox="0 0 100 100" fill="none" xmlns="http://www.w3.org/2000/svg">
  <g>
    <path d="M55.4167 61.25L61.25 55.4167L45.8333 40L45.8333 20.8333L37.5 20.8333L37.5 43.3333L55.4167 61.25L55.4167 61.25ZM41.6667 83.3333C35.9028 83.3333 30.4861 82.2396 25.4167 80.0521C20.3472 77.8646 15.9375 74.8958 12.1875 71.1458C8.4375 67.3958 5.46875 62.9861 3.28125 57.9167C1.09375 52.8472 0 47.4306 0 41.6667C0 35.9028 1.09375 30.4861 3.28125 25.4167C5.46875 20.3472 8.4375 15.9375 12.1875 12.1875C15.9375 8.4375 20.3472 5.46875 25.4167 3.28125C30.4861 1.09375 35.9028 0 41.6667 0C47.4305 0 52.8472 1.09375 57.9167 3.28125C62.9861 5.46875 67.3958 8.4375 71.1458 12.1875C74.8958 15.9375 77.8646 20.3472 80.0521 25.4167C82.2396 30.4861 83.3333 35.9028 83.3333 41.6667C83.3333 47.4306 82.2396 52.8472 80.0521 57.9167C77.8646 62.9861 74.8958 67.3958 71.1458 71.1458C67.3958 74.8958 62.9861 77.8646 57.9167 80.0521C52.8472 82.2396 47.4305 83.3333 41.6667 83.3333ZM40.8835 40.8835L40.8835 40.8835ZM41.6667 75C50.9028 75 58.7674 71.7535 65.2604 65.2604C71.7535 58.7674 75 50.9028 75 41.6667C75 32.4306 71.7535 24.566 65.2604 18.0729C58.7674 11.5799 50.9028 8.33333 41.6667 8.33333C32.4306 8.33333 24.566 11.5799 18.0729 18.0729C11.5799 24.566 8.33333 32.4306 8.33333 41.6667C8.33333 50.9028 11.5799 58.7674 18.0729 65.2604C24.566 71.7535 32.4306 75 41.6667 75C41.6667 75 41.6667 75 41.6667 75Z" fill="#1F1F1F" transform="translate(8.333 8.333)" />
  </g>
</svg>