<?xml version="1.0" encoding="utf-8"?>
<svg width="101" height="101" viewBox="0 0 101 101" fill="none" xmlns="http://www.w3.org/2000/svg">
  <g>
    <path d="M101 50.5C101 52.8242 99.1158 54.7083 96.7916 54.7083C94.4674 54.7083 92.5833 52.8242 92.5833 50.5C92.5579 27.2689 73.7316 8.44233 50.5002 8.41667C48.176 8.41667 46.2919 6.53253 46.2919 4.20833C46.2919 1.88413 48.176 0 50.5002 0C78.378 0.030289 100.97 22.6222 101 50.5C101 50.5 101 50.5 101 50.5ZM67.3333 52.7083C69.6575 52.7083 71.5416 50.8242 71.5416 48.5C71.5416 46.1758 69.6575 44.2917 67.3333 44.2917C67.3333 44.2917 57.7509 44.2917 57.7509 44.2917C57.0175 43.031 55.969 41.9825 54.7083 41.249C54.7083 41.249 54.7083 27.4583 54.7083 27.4583C54.7083 25.1341 52.8242 23.25 50.5 23.25C48.1758 23.25 46.2916 25.1341 46.2916 27.4583C46.2916 27.4583 46.2916 41.249 46.2916 41.249C43.2324 43.0105 41.6027 46.4983 42.2144 49.975C42.826 53.4518 45.5482 56.174 49.0249 56.7856C52.5017 57.3973 55.9894 55.7676 57.7509 52.7083C57.7509 52.7083 67.3333 52.7083 67.3333 52.7083ZM7.68864 28.5493C5.36444 28.5493 3.48031 30.4335 3.48031 32.7577C3.48031 35.0818 5.36444 36.966 7.68864 36.966C10.0128 36.966 11.897 35.0818 11.897 32.7576C11.897 30.4335 10.0128 28.5493 7.68864 28.5493C7.68864 28.5493 7.68864 28.5493 7.68864 28.5493ZM8.41666 50.5C8.41666 48.1758 6.53253 46.2916 4.20833 46.2916C1.88413 46.2916 0 48.1758 0 50.5C2.50836e-07 52.8242 1.88413 54.7083 4.20833 54.7083C6.53253 54.7083 8.41666 52.8242 8.41666 50.5ZM50.5 92.5834C48.1758 92.5834 46.2916 94.4675 46.2916 96.7917C46.2916 99.1159 48.1758 101 50.5 101C52.8242 101 54.7083 99.1159 54.7083 96.7917C54.7083 94.4675 52.8242 92.5834 50.5 92.5834ZM17.7634 13.4961C16.0613 13.4961 14.5267 14.5214 13.8754 16.094C13.224 17.6665 13.584 19.4766 14.7876 20.6802C15.9912 21.8838 17.8013 22.2438 19.3738 21.5924C20.9464 20.9411 21.9717 19.4066 21.9717 17.7044C21.9717 15.3802 20.0876 13.4961 17.7634 13.4961C17.7634 13.4961 17.7634 13.4961 17.7634 13.4961ZM32.7366 3.53921C31.0345 3.53921 29.5 4.56454 28.8486 6.13708C28.1972 7.70963 28.5573 9.51971 29.7608 10.7233C30.9644 11.9269 32.7745 12.2869 34.347 11.6355C35.9196 10.9842 36.9449 9.44966 36.9449 7.74754C36.9449 5.42334 35.0608 3.53921 32.7366 3.53921C32.7366 3.53921 32.7366 3.53921 32.7366 3.53921ZM7.68864 64.034C5.36444 64.034 3.48031 65.9181 3.48031 68.2423C3.48031 70.5665 5.36444 72.4506 7.68864 72.4506C10.0128 72.4506 11.897 70.5665 11.897 68.2423C11.897 65.9181 10.0128 64.034 7.68864 64.034ZM17.7634 79.0872C15.4392 79.0872 13.5551 80.9714 13.5551 83.2956C13.5551 85.6198 15.4392 87.5039 17.7634 87.5039C20.0876 87.5039 21.9717 85.6198 21.9717 83.2956C21.9717 80.9714 20.0876 79.0872 17.7634 79.0872C17.7634 79.0872 17.7634 79.0872 17.7634 79.0872ZM32.7366 89.0441C30.4124 89.0441 28.5283 90.9283 28.5283 93.2525C28.5283 95.5767 30.4124 97.4608 32.7366 97.4608C35.0608 97.4608 36.9449 95.5767 36.9449 93.2525C36.9449 90.9283 35.0608 89.0442 32.7366 89.0442C32.7366 89.0442 32.7366 89.0441 32.7366 89.0441ZM93.3114 64.034C90.9872 64.034 89.1031 65.9181 89.1031 68.2423C89.1031 70.5665 90.9872 72.4507 93.3114 72.4507C95.6356 72.4507 97.5197 70.5665 97.5197 68.2423C97.5197 65.9181 95.6356 64.034 93.3114 64.034C93.3114 64.034 93.3114 64.034 93.3114 64.034ZM83.2366 79.0872C80.9125 79.0872 79.0283 80.9714 79.0283 83.2956C79.0283 85.6198 80.9125 87.5039 83.2366 87.5039C85.5608 87.5039 87.445 85.6198 87.445 83.2956C87.445 80.9714 85.5608 79.0872 83.2366 79.0872C83.2366 79.0872 83.2366 79.0872 83.2366 79.0872ZM68.2634 89.0441C65.9392 89.0441 64.0551 90.9283 64.0551 93.2525C64.0551 95.5767 65.9392 97.4608 68.2634 97.4608C70.5876 97.4608 72.4717 95.5767 72.4717 93.2525C72.4718 90.9283 70.5876 89.0442 68.2634 89.0442C68.2634 89.0442 68.2634 89.0441 68.2634 89.0441Z" fill="#0E5CC2" />
  </g>
</svg>